<svg version="1.2" xmlns="http://www.w3.org/2000/svg" viewBox="0 0 1553 532" width="1553" height="532"><style>.a{fill:#009de0}</style><path fill-rule="evenodd" class="a" d="m157.3 269.5l-7.6-62.4 48.4-33.1-63.7-84c-48.4 31.9-92.3 113.5-81.9 161 33.1 8.9 104.8 18.5 104.8 18.5z"/><path fill-rule="evenodd" class="a" d="m52.5 276l103.5 17.8 42 42c0 0-31.8 58.7-45.6 82.7-47.2-17.7-100.3-85.3-99.7-142.6z"/><path fill-rule="evenodd" class="a" d="m217.7 353.5l79.7-16.4 52.3 98.1c0 0-92.1 30.2-151.7 12.7 9.5-61.3 19.7-94.4 19.7-94.4z"/><path fill-rule="evenodd" class="a" d="m338.2 314.2l11.5-12.7 86.6 45.9-24.2 46.5z"/><path fill-rule="evenodd" class="a" d="m370.1 276v-52.1l81.5-44 7.7 130.5z"/><path fill-rule="evenodd" class="a" d="m338.2 179.9l16.6 23.6 135.1-73.9-30.6-30.5z"/><path fill-rule="evenodd" class="a" d="m168.8 70.9l57.3 80.3 40.8-16.4 40.7 31.9 79.7-62.4c0 0-73.3-99.3-218.5-33.1z"/><path fill-rule="evenodd" class="a" d="m288.5 490l7.7 42c0 0 91.1-15.8 140.2-50.9-11.5-21.7-21.7-37-21.7-37l-52.2 44z"/><path fill-rule="evenodd" class="a" d="m444 418.6l36.9 25.5 35.7-63.6-36.3-11.5z"/><path fill-rule="evenodd" class="a" d="m489.9 226.4c4.7 27.5 7.8 84 0 104.4 15.4 6.3 39.5 16.6 39.5 16.6 0 0 20.4-63.9 0-127.4-19.7 4-39.5 6.4-39.5 6.4z"/><path fill-rule="evenodd" class="a" d="m480.3 166.6l12.6 31.6 30.3-9.5-11-39z"/><path fill-rule="evenodd" class="a" d="m338.2 48.3l11.5-19.2 94.3 34.7-37.8 26.3z"/><path fill-rule="evenodd" class="a" d="m145.6 21.8l124-21.8 39.7 7.3-7 21.3-28.4-6.8-115.6 21.9z"/><path fill-rule="evenodd" class="a" d="m82.1 74.4l12.3 7.9-52.7 90.7h-34.2z"/><path fill-rule="evenodd" class="a" d="m4 231.6c-11.1 75.7 11.5 131.2 19.1 137.6l22.8-2.2c0 0-25.6-90.4-31.5-137.6z"/><path fill-rule="evenodd" class="a" d="m46.7 422.9l23-19.1c0 0 39.4 40.3 84.1 58.8-10.1 19-13.5 25.5-13.5 25.5 0 0-65.4-31-93.6-65.2z"/><path fill-rule="evenodd" class="a" d="m183.5 478.3v28.6l65 19 3.4-37.8z"/><path fill-rule="evenodd" class="a" d="m815.3 328.8c-24.8 29.2-54.8 45.5-89.6 45.5-61.2 0-103.8-40.5-103.8-93.1 0-58.2 41.9-109.4 194.1-116.5v-9.3c0-52.6-20.7-73.8-73.4-73.8-33.4 0-74.5 15.6-105.2 36.2l-11.4-52.5c28.4-19.9 76.1-37.7 122.3-37.7 88.2 0 127.3 37.7 125.9 126.5v136.4c0 27 3.5 31.9 31.9 31.9l-3.5 49c-52.7 4.3-76.1-14.2-84.7-42.6zm-131.5-54.7c0 29.2 22.1 50.5 57.6 50.5 29.9 0 56.2-14.9 74.5-34.8v-88.1c-96.6 12.7-132.1 32.6-132.1 72.4zm132.1-72.4q0.1 0 0.1 0z"/><path fill-rule="evenodd" class="a" d="m951.7 363.7v-50.5c99.4-73.9 189.9-129.3 189.9-184.7 0-32.7-24.8-56.2-67.4-56.2-35.5 0-67.5 15.7-101 40.5l-20.6-49.6c33.4-26.3 75.4-45.5 128-45.5 72.5 0 123 41.2 123 103.7 0 77.5-70.4 120.1-162.9 186.9h178.6v55.4z"/><path fill-rule="evenodd" class="a" d="m1460.9 328.8c-24.9 29.2-54.8 45.5-89.6 45.5-61.2 0-103.8-40.5-103.8-93.1 0-58.2 41.9-109.4 194.1-116.5v-9.3c0-52.5-20.7-73.9-73.3-73.9-33.4 0-74.5 15.7-105.2 36.3l-11.4-52.6c28.4-19.9 76.1-37.6 122.4-37.6 88.1 0 127.2 37.6 125.8 126.4v136.5c0 27 3.5 31.9 31.9 31.9l-3.5 49c-52.6 4.3-76.1-14.2-84.6-42.6zm-131.6-54.7c0 29.2 22 50.5 57.6 50.5 29.8 0 56.1-14.9 74.5-34.8v-88.1c-96.6 12.8-132.1 32.6-132.1 72.4zm132.1-72.4q0.1 0 0.2 0z"/><path fill-rule="evenodd" class="a" d="m648.9 440.9v73.4h42v13.1h-58.8v-86.5zm70.6 0v86.5h-16.7v-86.5zm72.3 0v13.1h-36.1v22.3h36.1v13.1h-36.1v38h-16.8v-86.5zm71.2 0v13.1h-39.2v22.7h37.4v13h-37.5v24.6h40.1v13.1h-56.8v-86.5zm72.2 4.6c7.8-3.8 16.4-5.7 25.1-5.6 4.8 0 9.7 0.5 14.4 1.7q8 2 15.3 5.7v15.7c-4.7-2.8-9.7-5-14.8-6.6-4.6-1.4-9.4-2.1-14.2-2.1-5.8-0.1-11.5 1.2-16.7 3.8-4.8 2.4-8.8 6.1-11.6 10.7-2.7 4.6-4.2 10-4.1 15.4-0.1 5.4 1.3 10.8 4.1 15.5 2.7 4.6 6.7 8.3 11.5 10.7 5.2 2.5 11 3.8 16.8 3.7 4.6 0 9.2-0.7 13.6-2 5.6-2 11.1-4.5 16.3-7.4v15.7c-4.9 2.7-10.1 4.8-15.5 6.3q-8.1 1.9-16.5 1.8c-8.5 0.2-16.8-1.7-24.4-5.4-7.1-3.5-13-9-17-15.7-4.1-6.8-6.2-14.5-6.2-22.5-0.1-8.2 2.1-16.4 6.4-23.4 4.2-6.9 10.2-12.5 17.4-16.1zm90.3 0c7.6-3.8 16-5.8 24.5-5.8 8.5-0.1 16.8 1.8 24.5 5.5 7.1 3.7 13 9.3 17.1 16.1 4.2 6.8 6.4 14.7 6.4 22.7 0 7.9-2.2 15.8-6.4 22.6-4.1 6.8-10 12.4-17.1 16.1-7.6 3.8-16 5.8-24.5 5.8-8.5 0-16.8-2-24.4-5.8-7.2-3.6-13.1-9.2-17.2-16-4.2-6.8-6.3-14.7-6.2-22.7 0-7.9 2.1-15.6 6.1-22.4 4.1-6.8 9.9-12.5 16.9-16.2zm-2.2 23.4c-2.5 4.7-3.8 10.1-3.8 15.5 0 5.4 1.3 10.8 3.9 15.5 2.6 4.5 6.4 8.2 10.9 10.6 4.9 2.6 10.3 3.9 15.8 3.8 4 0.1 8-0.7 11.8-2.2 3.7-1.4 7.1-3.7 10-6.5 2.8-2.8 5.1-6.2 6.5-9.9 1.5-3.7 2.2-7.7 2-11.7 0.1-5.4-1.2-10.7-3.8-15.5-2.6-4.5-6.3-8.2-10.9-10.6-4.9-2.5-10.4-3.8-15.9-3.8-5.5 0-10.9 1.3-15.8 3.8-4.5 2.4-8.2 6.1-10.7 10.6zm105.4-27.9l28.4 34.1 28.4-34.1h14.9v86.5h-16.7v-60.8h-0.5l-25.1 30.5h-2.3l-25.1-30.5h-0.5v60.6h-16.7v-86.5zm124.3-0.2c7.2-0.3 14.3 2.2 19.7 7.1 2.5 2.3 4.5 5.1 5.8 8.2 1.3 3.1 1.9 6.5 1.8 9.9 0.2 3.4-0.5 6.8-1.8 9.9-1.3 3.2-3.3 6-5.9 8.2-5.6 4.9-12.8 7.4-20.2 7.1h-16.2v36.1h-16.7v-86.5zm-4.1 37.4c3.7 0.2 7.4-0.9 10.4-3.1 1.3-1.1 2.3-2.5 2.9-4.1 0.7-1.5 1-3.2 0.8-4.9q0-12-15.4-12h-11.4v23.9zm81.1-37.3l38.3 86.5h-17.8l-8.9-21.1h-38.5l-8.4 21.1h-17.5l35.7-86.5zm-21.9 52.7h28l-14.6-34.2zm84.8-52.6l51.5 60.3v-60.3h16.3v86.5h-14.2l-51.8-61.4v61.2h-16.5v-86.5zm98 0l20.9 28.9 21.3-28.9h19.9l-32.7 43.7v42.7h-16.7v-43l-32.9-43.6z"/></svg>